<?xml version="1.0" encoding="UTF-8"?>
<svg version="1.1" xmlns="http://www.w3.org/2000/svg" width="277" height="277">
<path d="M0 0 C0.89460937 0.350625 1.78921875 0.70125 2.7109375 1.0625 C8.1336398 3.28340197 12.4479869 6.34405247 17 10 C18.43139446 11.13275821 19.86879559 12.25797323 21.3125 13.375 C21.94800781 13.87773438 22.58351562 14.38046875 23.23828125 14.8984375 C25.07765275 16.26508396 25.07765275 16.26508396 28 16 C28.061875 16.5775 28.12375 17.155 28.1875 17.75 C29.33041949 20.91500782 31.34763397 21.92423528 34 24 C48.51763647 38.55457702 59.90337287 58.10086192 65 78 C65.25749023 78.98685791 65.51498047 79.97371582 65.78027344 80.99047852 C67.99193723 90.2309466 68.56027349 99.12128764 68.5 108.5625 C68.49823761 109.3043454 68.49647522 110.0461908 68.49465942 110.81051636 C68.42815927 123.41491815 67.13386929 135.01569123 63 147 C62.75362793 147.73911621 62.50725586 148.47823242 62.25341797 149.23974609 C56.64943295 165.58921883 47.16295112 179.79553711 35 192 C34.16082031 192.845625 33.32164062 193.69125 32.45703125 194.5625 C9.84937191 216.99044822 -19.24478875 228.03252183 -51 228.25 C-68.98294199 228.12673682 -85.26467523 224.18668979 -101.8203125 217.26953125 C-104.81624104 215.98808731 -104.81624104 215.98808731 -107.32421875 215.4296875 C-109.89175436 214.77134504 -111.13155169 212.86844831 -113 211 C-114.27855443 210.1466854 -115.57244241 209.31620522 -116.875 208.5 C-143.56626561 191.05818287 -161.06597458 164.29172105 -167.56860352 133.2890625 C-168.99020541 125.62620443 -169.350196 118.1581471 -169.3125 110.375 C-169.30686035 109.1480542 -169.3012207 107.9211084 -169.29541016 106.65698242 C-168.88177265 75.49287766 -157.21158079 48.7138718 -136.59375 25.4765625 C-135 24 -135 24 -133 24 C-132.79632813 23.44699219 -132.59265625 22.89398438 -132.3828125 22.32421875 C-130.4669847 19.10411269 -127.79667135 17.07306032 -124.875 14.8125 C-124.25608887 14.33272705 -123.63717773 13.8529541 -122.99951172 13.35864258 C-87.25896644 -13.65456025 -40.74282513 -16.92252782 0 0 Z M-78 14 C-78.99 14 -79.98 14 -81 14 C-81 14.99 -81 15.98 -81 17 C-81.66 17 -82.32 17 -83 17 C-83.495 16.01 -83.495 16.01 -84 15 C-101.5674578 23.3331954 -101.5674578 23.3331954 -117 35 C-117 35.66 -117 36.32 -117 37 C-117.56203125 37.22171875 -118.1240625 37.4434375 -118.703125 37.671875 C-131.20578902 44.90130658 -139.29875625 64.22410095 -144 77 C-144.29648438 77.7940625 -144.59296875 78.588125 -144.8984375 79.40625 C-153.06478325 103.66272253 -149.62014321 131.5861798 -138.6875 154.375 C-126.51780252 177.32432176 -106.53977746 195.74375532 -81.5625 203.5 C-79.71283198 204.01639348 -77.86026025 204.52317107 -76 205 C-76 204.34 -76 203.68 -76 203 C-75.34 203 -74.68 203 -74 203 C-73.67 203.99 -73.34 204.98 -73 206 C-58.50097253 208.04433142 -42.16907598 209.72302533 -28 205 C-28 204.34 -28 203.68 -28 203 C-26.96166016 203.30744141 -26.96166016 203.30744141 -25.90234375 203.62109375 C-15.00480175 205.04378766 -0.90536321 195.14649963 7.71484375 189.09375 C17.65105044 181.43360962 26.29212742 172.61094202 33 162 C33.78310547 160.81664062 33.78310547 160.81664062 34.58203125 159.609375 C48.18107395 138.26404215 51.28697088 111.17852002 45.9765625 86.7109375 C39.15280194 60.78064735 22.8074971 37.45839137 -0.4284668 23.60791016 C-5.77363789 20.54022183 -11.11680417 17.88262267 -17 16 C-17 16.66 -17 17.32 -17 18 C-17.66 18 -18.32 18 -19 18 C-19 17.01 -19 16.02 -19 15 C-21.33159304 14.34727539 -23.66497796 13.70274798 -26 13.0625 C-26.64839844 12.88009766 -27.29679687 12.69769531 -27.96484375 12.50976562 C-35.32116056 10.50680808 -42.51465631 9.80359693 -50.125 9.8125 C-51.21989746 9.8137085 -51.21989746 9.8137085 -52.33691406 9.81494141 C-61.15481702 9.91257776 -69.77451153 10.67063562 -78 14 Z " fill="#624CF9" transform="translate(190,28)"/>
<path d="M0 0 C1.32 0.66 2.64 1.32 4 2 C4 18.17 4 34.34 4 51 C2.68 51.66 1.36 52.32 0 53 C0 52.34 0 51.68 0 51 C-1.32 51.66 -2.64 52.32 -4 53 C-4 52.34 -4 51.68 -4 51 C-9.94 51 -15.88 51 -22 51 C-22 35.16 -22 19.32 -22 3 C-13.88730185 0.68208624 -8.17195857 0.63800691 0 2 C0 1.34 0 0.68 0 0 Z " fill="#5037FC" transform="translate(190,99)"/>
<path d="M0 0 C1.61243185 1.61243185 1.16538039 3.38053346 1.20532227 5.61157227 C1.22526749 6.59251358 1.24521271 7.5734549 1.26576233 8.5841217 C1.28247482 9.6507756 1.29918732 10.7174295 1.31640625 11.81640625 C1.33718735 12.9025975 1.35796844 13.98878876 1.37937927 15.1078949 C1.44499442 18.59269627 1.50381511 22.07757568 1.5625 25.5625 C1.60567385 27.91862801 1.64928776 30.27474799 1.69335938 32.63085938 C1.80068792 38.42048937 1.90243165 44.21019775 2 50 C-0.90874004 50.96958001 -2.78989791 51.12880274 -5.81640625 51.1328125 C-6.74517578 51.13410156 -7.67394531 51.13539063 -8.63085938 51.13671875 C-9.59830078 51.13285156 -10.56574219 51.12898438 -11.5625 51.125 C-13.01946289 51.13080078 -13.01946289 51.13080078 -14.50585938 51.13671875 C-15.43333984 51.13542969 -16.36082031 51.13414062 -17.31640625 51.1328125 C-18.16662354 51.13168457 -19.01684082 51.13055664 -19.89282227 51.12939453 C-22 51 -22 51 -24 50 C-23.99777939 49.44511902 -23.99555878 48.89023804 -23.99327087 48.31854248 C-23.97114814 42.54358565 -23.95606415 36.76864086 -23.94506836 30.99365234 C-23.94003948 28.83837393 -23.93321558 26.68309893 -23.92456055 24.52783203 C-23.91243179 21.43000446 -23.90675722 18.33222199 -23.90234375 15.234375 C-23.89718246 14.27070007 -23.89202118 13.30702515 -23.88670349 12.31414795 C-23.88662796 11.41351624 -23.88655243 10.51288452 -23.88647461 9.58496094 C-23.884254 8.79442322 -23.88203339 8.0038855 -23.87974548 7.18939209 C-23.99973423 5.00483874 -24.39644803 3.09807318 -25 1 C-16.68822141 0.16133405 -8.35635784 -0.44049018 0 0 Z " fill="#5239FC" transform="translate(106,100)"/>
<path d="M0 0 C3.20291861 2.08562142 5.09610015 3.87236266 6.25561523 7.55371094 C6.75057739 10.07077119 6.80007078 12.38782556 6.78515625 14.953125 C6.78265869 15.83645508 6.78016113 16.71978516 6.77758789 17.62988281 C6.76848389 18.74202148 6.75937988 19.85416016 6.75 21 C6.729375 24.5475 6.70875 28.095 6.6875 31.75 C-2.2225 31.75 -11.1325 31.75 -20.3125 31.75 C-21.88873704 27.02128888 -21.30405129 22.31560167 -21.125 17.375 C-21.10630859 16.3334375 -21.08761719 15.291875 -21.06835938 14.21875 C-20.78825953 6.53320331 -20.78825953 6.53320331 -18.40234375 2.60546875 C-13.01624922 -2.1765778 -6.54477909 -2.46972796 0 0 Z " fill="#533BFB" transform="translate(146.3125,170.25)"/>
<path d="M0 0 C1.32 0.66 2.64 1.32 4 2 C4 18.17 4 34.34 4 51 C2.68 51.66 1.36 52.32 0 53 C0 52.34 0 51.68 0 51 C-1.32 51.66 -2.64 52.32 -4 53 C-4 52.34 -4 51.68 -4 51 C-9.94 51 -15.88 51 -22 51 C-22 35.16 -22 19.32 -22 3 C-13.88730185 0.68208624 -8.17195857 0.63800691 0 2 C0 1.34 0 0.68 0 0 Z M-20 3 C-20 18.51 -20 34.02 -20 50 C-12.74 50 -5.48 50 2 50 C2 34.49 2 18.98 2 3 C-5.26 3 -12.52 3 -20 3 Z " fill="#B9B3E9" transform="translate(190,99)"/>
<path d="M0 0 C1.61243185 1.61243185 1.16538039 3.38053346 1.20532227 5.61157227 C1.22526749 6.59251358 1.24521271 7.5734549 1.26576233 8.5841217 C1.28247482 9.6507756 1.29918732 10.7174295 1.31640625 11.81640625 C1.33718735 12.9025975 1.35796844 13.98878876 1.37937927 15.1078949 C1.44499442 18.59269627 1.50381511 22.07757568 1.5625 25.5625 C1.60567385 27.91862801 1.64928776 30.27474799 1.69335938 32.63085938 C1.80068792 38.42048937 1.90243165 44.21019775 2 50 C-0.90874004 50.96958001 -2.78989791 51.12880274 -5.81640625 51.1328125 C-6.74517578 51.13410156 -7.67394531 51.13539063 -8.63085938 51.13671875 C-9.59830078 51.13285156 -10.56574219 51.12898438 -11.5625 51.125 C-13.01946289 51.13080078 -13.01946289 51.13080078 -14.50585938 51.13671875 C-15.43333984 51.13542969 -16.36082031 51.13414062 -17.31640625 51.1328125 C-18.16662354 51.13168457 -19.01684082 51.13055664 -19.89282227 51.12939453 C-22 51 -22 51 -24 50 C-23.99777939 49.44511902 -23.99555878 48.89023804 -23.99327087 48.31854248 C-23.97114814 42.54358565 -23.95606415 36.76864086 -23.94506836 30.99365234 C-23.94003948 28.83837393 -23.93321558 26.68309893 -23.92456055 24.52783203 C-23.91243179 21.43000446 -23.90675722 18.33222199 -23.90234375 15.234375 C-23.89718246 14.27070007 -23.89202118 13.30702515 -23.88670349 12.31414795 C-23.88662796 11.41351624 -23.88655243 10.51288452 -23.88647461 9.58496094 C-23.884254 8.79442322 -23.88203339 8.0038855 -23.87974548 7.18939209 C-23.99973423 5.00483874 -24.39644803 3.09807318 -25 1 C-16.68822141 0.16133405 -8.35635784 -0.44049018 0 0 Z M-22 2 C-22 17.51 -22 33.02 -22 49 C-14.74 49 -7.48 49 0 49 C0 33.49 0 17.98 0 2 C-7.26 2 -14.52 2 -22 2 Z " fill="#B2AED5" transform="translate(106,100)"/>
<path d="M0 0 C4.15995584 1.56979466 6.76447099 3.11723909 9 7 C9.98219838 10.11838489 10.11660641 12.94369791 10.09765625 16.203125 C10.09515869 17.08645508 10.09266113 17.96978516 10.09008789 18.87988281 C10.08098389 19.99202148 10.07187988 21.10416016 10.0625 22.25 C10.041875 25.7975 10.02125 29.345 10 33 C1.09 33 -7.82 33 -17 33 C-18.04616643 29.8615007 -18.04169366 27.94961697 -17.87890625 24.67578125 C-17.83056641 23.64775391 -17.78222656 22.61972656 -17.73242188 21.56054688 C-17.67634766 20.48869141 -17.62027344 19.41683594 -17.5625 18.3125 C-17.51029297 17.22904297 -17.45808594 16.14558594 -17.40429688 15.02929688 C-17.27458784 12.35257409 -17.13962067 9.67622112 -17 7 C-16.34 6.67 -15.68 6.34 -15 6 C-15.33 14.25 -15.66 22.5 -16 31 C-8.08 31 -0.16 31 8 31 C7.896875 27.473125 7.79375 23.94625 7.6875 20.3125 C7.66260498 19.20946533 7.63770996 18.10643066 7.61206055 16.9699707 C7.44212165 9.95040798 7.44212165 9.95040798 4 4 C0.83754459 2.9458482 -1.86948218 2.68724328 -5.1875 2.4375 C-6.81751953 2.31181641 -6.81751953 2.31181641 -8.48046875 2.18359375 C-9.31191406 2.12300781 -10.14335937 2.06242188 -11 2 C-7.27661917 -0.48225389 -4.31288496 -0.53094228 0 0 Z " fill="#B1A8ED" transform="translate(143,169)"/>
<path d="M0 0 C1.32 0.66 2.64 1.32 4 2 C4 18.17 4 34.34 4 51 C2.68 51.66 1.36 52.32 0 53 C0 52.34 0 51.68 0 51 C-1.32 51.66 -2.64 52.32 -4 53 C-3.67 52.01 -3.34 51.02 -3 50 C-1.35 50 0.3 50 2 50 C2 34.16 2 18.32 2 2 C1.34 2 0.68 2 0 2 C0 1.34 0 0.68 0 0 Z " fill="#DFDCFA" transform="translate(190,99)"/>
<path d="M0 0 C0 0.66 0 1.32 0 2 C-6.65266848 5.56972455 -13.73058396 7.23121991 -21 9.0625 C-21.67289063 9.23587891 -22.34578125 9.40925781 -23.0390625 9.58789062 C-31.04726823 11.60540192 -38.7006667 12.15837002 -46.9375 12.125 C-48.36352539 12.13080078 -48.36352539 12.13080078 -49.81835938 12.13671875 C-55.30572608 12.12915518 -60.57176253 11.8075064 -66 11 C-66 10.34 -66 9.68 -66 9 C-64.48599609 9.14308594 -64.48599609 9.14308594 -62.94140625 9.2890625 C-49.49394049 10.37935479 -36.4011773 9.33034773 -23 8 C-23 7.34 -23 6.68 -23 6 C-21.948125 5.938125 -20.89625 5.87625 -19.8125 5.8125 C-14.46137058 5.17843439 -9.7131229 3.0878566 -4.7578125 1.05859375 C-2 0 -2 0 0 0 Z " fill="#C5C0EB" transform="translate(185,225)"/>
<path d="M0 0 C0.66 0.33 1.32 0.66 2 1 C-0.61924979 6.10952136 -4.47552167 9.80718586 -8.5 13.8125 C-9.17675781 14.50537109 -9.85351562 15.19824219 -10.55078125 15.91210938 C-11.20433594 16.56630859 -11.85789062 17.22050781 -12.53125 17.89453125 C-13.12486328 18.49112549 -13.71847656 19.08771973 -14.33007812 19.70239258 C-16 21 -16 21 -19 21 C-17.56438314 17.81293058 -15.79733671 15.37830895 -13.5 12.75 C-12.8915625 12.04359375 -12.283125 11.3371875 -11.65625 10.609375 C-10 9 -10 9 -8 9 C-7.79375 8.443125 -7.5875 7.88625 -7.375 7.3125 C-5.44999226 4.07498698 -2.96149098 2.31768859 0 0 Z " fill="#8B7EEB" transform="translate(65,43)"/>
<path d="M0 0 C0.89749822 3.0682638 1.11711768 5.79269976 1.09765625 8.984375 C1.09515869 9.82709961 1.09266113 10.66982422 1.09008789 11.53808594 C1.08098389 12.59801758 1.07187988 13.65794922 1.0625 14.75 C1.041875 18.1325 1.02125 21.515 1 25 C8.92 25.33 16.84 25.66 25 26 C25 19.07 25 12.14 25 5 C25.33 5 25.66 5 26 5 C26 12.26 26 19.52 26 27 C17.09 27 8.18 27 -1 27 C-2.0391103 23.88266911 -2.05488944 21.96331628 -1.9140625 18.7109375 C-1.87023437 17.68742187 -1.82640625 16.66390625 -1.78125 15.609375 C-1.7296875 14.54203125 -1.678125 13.4746875 -1.625 12.375 C-1.58117187 11.29992187 -1.53734375 10.22484375 -1.4921875 9.1171875 C-1.12909226 1.12909226 -1.12909226 1.12909226 0 0 Z " fill="#CFCCE6" transform="translate(127,175)"/>
<path d="M0 0 C1.47625093 3.83825242 0.47572448 6.27185394 -1 10 C-2.4293251 13.14451522 -4.19986767 16.05432891 -6 19 C-7.38496444 14.84510669 -5.74896471 12.21477434 -4.125 8.375 C-3.70154297 7.33472656 -3.70154297 7.33472656 -3.26953125 6.2734375 C-1.16380295 1.16380295 -1.16380295 1.16380295 0 0 Z " fill="#B4ADE7" transform="translate(33,83)"/>
<path d="M0 0 C1.06528748 2.73019786 1.07998186 3.79298812 0.00390625 6.578125 C-0.47175781 7.45984375 -0.94742188 8.3415625 -1.4375 9.25 C-1.91058594 10.14203125 -2.38367188 11.0340625 -2.87109375 11.953125 C-3.24363281 12.62859375 -3.61617187 13.3040625 -4 14 C-4.66 14 -5.32 14 -6 14 C-4.50829734 9.0276578 -2.39542583 4.58154261 0 0 Z " fill="#B4ADEA" transform="translate(231,173)"/>
<path d="M0 0 C8.94161491 0.90931677 8.94161491 0.90931677 13 3 C13.33 3.66 13.66 4.32 14 5 C13.236875 4.814375 12.47375 4.62875 11.6875 4.4375 C8.91032625 3.77180827 8.91032625 3.77180827 6 5 C6 4.01 6 3.02 6 2 C3.03 1.505 3.03 1.505 0 1 C0 0.67 0 0.34 0 0 Z " fill="#C4BFE9" transform="translate(165,41)"/>
<path d="M0 0 C0.33 0 0.66 0 1 0 C1 3.96 1 7.92 1 12 C0.01 12.33 -0.98 12.66 -2 13 C-2 12.34 -2 11.68 -2 11 C-3.98 11.99 -3.98 11.99 -6 13 C-5.67 12.01 -5.34 11.02 -5 10 C-3.35 10 -1.7 10 0 10 C0 6.7 0 3.4 0 0 Z " fill="#C8C3F1" transform="translate(192,139)"/>
<path d="M0 0 C0 0.66 0 1.32 0 2 C-3.6678852 3.96189209 -6.87248551 5.39301257 -11 6 C-11 5.34 -11 4.68 -11 4 C-9.5437455 3.32880451 -8.08492133 2.66318193 -6.625 2 C-5.81289062 1.62875 -5.00078125 1.2575 -4.1640625 0.875 C-2 0 -2 0 0 0 Z " fill="#A198E3" transform="translate(185,225)"/>
<path d="M0 0 C0.66 0 1.32 0 2 0 C0.50163895 3.11198065 -1.19933758 6.0534615 -3 9 C-3.33 8.01 -3.66 7.02 -4 6 C-2.1875 2.8125 -2.1875 2.8125 0 0 Z " fill="#8879EC" transform="translate(30,93)"/>
<path d="M0 0 C5.75 0.875 5.75 0.875 8 2 C8 2.99 8 3.98 8 5 C4.62496331 3.8141763 2.35277269 2.72426311 0 0 Z " fill="#A198EB" transform="translate(187,50)"/>
<path d="M0 0 C2.97 0.495 2.97 0.495 6 1 C6.144375 1.61875 6.28875 2.2375 6.4375 2.875 C6.93152225 5.03258322 6.93152225 5.03258322 8 7 C5.05043472 5.63055898 2.47531189 4.12169591 0 2 C0 1.34 0 0.68 0 0 Z " fill="#DBD9EA" transform="translate(212,43)"/>
<path d="M0 0 C0.66 0 1.32 0 2 0 C2 0.66 2 1.32 2 2 C1.34 2 0.68 2 0 2 C0 1.34 0 0.68 0 0 Z " fill="#FEFEFE" transform="translate(187,98)"/>
<path d="" fill="#FEFEFF" transform="translate(0,0)"/>
<path d="" fill="#FEFEFE" transform="translate(0,0)"/>
<path d="" fill="#FEFEFF" transform="translate(0,0)"/>
<path d="" fill="#FEFEFF" transform="translate(0,0)"/>
</svg>
